<svg id="svg2" xmlns="http://www.w3.org/2000/svg" viewBox="0 0 113.39 24.71"><defs><style>.cls-1{font-size:19.11px;}.cls-1,.cls-2,.cls-3{font-family:MyriadPro-Regular, Myriad Pro;}.cls-2{font-size:18.99px;}.cls-3{font-size:18.3px;}</style></defs><g id="layer4"><path id="path4236" d="M16.05,6.11a6.28,6.28,0,0,1,4.15,6.23c0,3.69-1.82,5.4-4.12,6.63l0,5.81s-4.44.65-5.38.29L10.62,19c-1.93-1.24-4.08-2.43-4.11-6.45s2.4-5.86,4.14-6.45l0,6.8h5.43Z" transform="translate(-0.96 -1.3)"/><path id="path3895" d="M13.32,1.3A12.36,12.36,0,1,0,25.67,13.65,12.37,12.37,0,0,0,13.32,1.3Zm0,1.88A10.47,10.47,0,1,1,2.85,13.65,10.45,10.45,0,0,1,13.32,3.18Z" transform="translate(-0.96 -1.3)"/><g id="text3013"><text class="cls-1" transform="translate(25.37 18.78) scale(1.02 1)">A</text><text class="cls-2" transform="translate(35.66 18.71) scale(0.96 1)">C</text><text class="cls-3" transform="translate(45.65 18.69)">M</text><path id="path3335" d="M61,15.77V14.44h4.31v1.33H61" transform="translate(-0.96 -1.3)"/><path id="path3337" d="M72.75,13.2h4.37v6.25a15,15,0,0,1-2.08.49,16,16,0,0,1-2.44.16,5.92,5.92,0,0,1-4.55-1.73,6.87,6.87,0,0,1-1.62-4.87,7.26,7.26,0,0,1,.8-3.5,5.44,5.44,0,0,1,2.32-2.31,7.51,7.51,0,0,1,3.54-.79,9.73,9.73,0,0,1,3.83.75L76.34,9A8.58,8.58,0,0,0,73,8.23a4.8,4.8,0,0,0-3.66,1.4A5.41,5.41,0,0,0,68,13.5a5.53,5.53,0,0,0,1.27,3.95A4.87,4.87,0,0,0,73,18.8a11.36,11.36,0,0,0,2.61-.31v-4H72.75V13.2" transform="translate(-0.96 -1.3)"/><path id="path3339" d="M85.91,19.93l-.29-1.37h-.07a4.15,4.15,0,0,1-1.44,1.23,4.4,4.4,0,0,1-1.78.31,3.22,3.22,0,0,1-2.25-.73,2.72,2.72,0,0,1-.81-2.1c0-1.95,1.55-3,4.67-3.06l1.63-.06v-.59a2.38,2.38,0,0,0-.49-1.67,2,2,0,0,0-1.56-.55,6.37,6.37,0,0,0-2.72.74L80.35,11a6.74,6.74,0,0,1,1.56-.6,6.56,6.56,0,0,1,1.7-.22,3.65,3.65,0,0,1,2.55.76A3.18,3.18,0,0,1,87,13.36v6.57H85.91m-3.29-1a2.91,2.91,0,0,0,2.13-.75,2.74,2.74,0,0,0,.79-2.09v-.87l-1.46.06a5.34,5.34,0,0,0-2.52.55,1.61,1.61,0,0,0-.76,1.48,1.54,1.54,0,0,0,.47,1.21,2,2,0,0,0,1.35.41" transform="translate(-0.96 -1.3)"/><path id="path3341" d="M102.29,19.93V13.66a2.58,2.58,0,0,0-.5-1.72,1.86,1.86,0,0,0-1.52-.58,2.49,2.49,0,0,0-2,.78,3.75,3.75,0,0,0-.65,2.41v5.38H96.14V13.66a2.58,2.58,0,0,0-.49-1.72,1.9,1.9,0,0,0-1.54-.58,2.4,2.4,0,0,0-2,.83,4.45,4.45,0,0,0-.63,2.69v5H90V10.3H91.2l.23,1.31h.07a2.9,2.9,0,0,1,1.16-1.09,3.54,3.54,0,0,1,1.69-.4,2.85,2.85,0,0,1,3,1.64h.07a3.08,3.08,0,0,1,1.25-1.2,3.94,3.94,0,0,1,1.87-.44,3.24,3.24,0,0,1,2.44.84,3.76,3.76,0,0,1,.82,2.69v6.28h-1.46" transform="translate(-0.96 -1.3)"/><path id="path3343" d="M110.81,20.1a4.41,4.41,0,0,1-3.37-1.3,5,5,0,0,1-1.23-3.61,5.62,5.62,0,0,1,1.14-3.7,3.84,3.84,0,0,1,3.08-1.37,3.62,3.62,0,0,1,2.87,1.2,4.54,4.54,0,0,1,1,3.13v.93h-6.63a3.81,3.81,0,0,0,.85,2.57,3,3,0,0,0,2.3.88,7.8,7.8,0,0,0,3.07-.65v1.3a7,7,0,0,1-3.13.62m-.39-8.76a2.39,2.39,0,0,0-1.86.76,3.58,3.58,0,0,0-.81,2.09h5a3.2,3.2,0,0,0-.62-2.11,2.15,2.15,0,0,0-1.75-.74" transform="translate(-0.96 -1.3)"/></g></g><text x="-0.96" y="-1.3"/></svg>