<svg id="Layer_1" data-name="Layer 1" xmlns="http://www.w3.org/2000/svg" viewBox="0 0 112.99 25.01"><defs><style>.cls-1,.cls-3{isolation:isolate;}.cls-2,.cls-3{fill:#fff;}.cls-3{font-size:15.52px;font-family:ArialMT, Arial;}</style></defs><g id="layer2"><g id="layer4" class="cls-1"><path id="path4236" class="cls-2" d="M14,1A12.75,12.75,0,0,0,1,13.5,12.75,12.75,0,0,0,14,26,12.74,12.74,0,0,0,26.9,13.5,12.74,12.74,0,0,0,14,1Zm0,1.91a10.77,10.77,0,0,1,11,10.59,10.65,10.65,0,0,1-8.1,10.23l0-4.84c2.4-1.25,4.31-3,4.31-6.71a6.4,6.4,0,0,0-4.34-6.31v6.89H11.14l0-6.88a6.38,6.38,0,0,0-4.33,6.53c0,4.06,2.29,5.27,4.31,6.52l0,4.82A10.65,10.65,0,0,1,3,13.5,10.77,10.77,0,0,1,14,2.91Z" transform="translate(-1.01 -1)"/></g><g id="text4534" class="cls-1"><text class="cls-3" transform="translate(28.19 18.02) scale(1.04 1)">ACM-Game</text></g></g></svg>